<svg width="52" height="84" viewBox="0 0 52 84" fill="none" xmlns="http://www.w3.org/2000/svg">
<g id="Phone">
<g id="phone">
<rect id="phoneshadow" x="3" y="4" width="44" height="77" rx="3" fill="#C4C4C4"/>
<rect id="phone_2" x="4" y="3" width="44" height="77" rx="3" fill="#F7F7F7"/>
<circle id="homebutton" cx="26.2478" cy="75.2478" r="3.24783" fill="#C4C4C4"/>
<rect id="Rectangle 20" x="21" y="8" width="9.09393" height="1.29913" rx="0.649567" fill="#C4C4C4"/>
</g>
<g id="skeleton">
<g id="apps">
<rect id="Rectangle 3" x="8.02722" y="54.3051" width="15" height="15" rx="1" fill="#8E8E8E"/>
<rect id="Rectangle 7" x="9.02722" y="53.3051" width="15" height="15" rx="1" fill="#BFBFBF"/>
<rect id="Rectangle 8" x="27.0272" y="54.3051" width="15" height="15" rx="1" fill="#8E8E8E"/>
<rect id="Rectangle 9" x="28.0272" y="53.3051" width="15" height="15" rx="1" fill="#BFBFBF"/>
<rect id="Rectangle 10" x="8.02722" y="36.3051" width="15" height="15" rx="1" fill="#8E8E8E"/>
<rect id="Rectangle 11" x="9.02722" y="35.3051" width="15" height="15" rx="1" fill="#BFBFBF"/>
<rect id="Rectangle 12" x="27.0272" y="36.3051" width="15" height="15" rx="1" fill="#8E8E8E"/>
<rect id="Rectangle 13" x="28.0272" y="35.3051" width="15" height="15" rx="1" fill="#BFBFBF"/>
</g>
<g id="name">
<rect id="Rectangle 14" x="8" y="19" width="34" height="10" rx="1" fill="#8E8E8E"/>
<rect id="Rectangle 15" x="9" y="18" width="34" height="10" rx="1" fill="#C4C4C4"/>
<path id="Maxfield Smith" d="M14.6289 24.8223L13.7422 22.7598L13.668 22.5625L13.6816 23.2695V25H13.3652V22.1113H13.8027L14.8086 24.4121L15.8047 22.1113H16.2305V25H15.9023V23.2617L15.916 22.5703L15.8438 22.7676L14.959 24.8223H14.6289ZM17.4727 24.7812C17.6276 24.7812 17.7637 24.7389 17.8809 24.6543C17.9993 24.5684 18.0755 24.4531 18.1094 24.3086V23.9473C18.1029 23.9473 18.0632 23.9505 17.9902 23.957C17.9186 23.9635 17.8717 23.9674 17.8496 23.9688C17.5671 23.9935 17.3698 24.0397 17.2578 24.1074C17.1471 24.1751 17.0918 24.2839 17.0918 24.4336C17.0918 24.5482 17.1257 24.6348 17.1934 24.6934C17.2611 24.752 17.3542 24.7812 17.4727 24.7812ZM18.1816 25C18.1621 24.9167 18.1432 24.8268 18.125 24.7305C18.0065 24.849 17.8952 24.931 17.791 24.9766C17.6868 25.0221 17.5645 25.0449 17.4238 25.0449C17.2233 25.0449 17.0618 24.9928 16.9395 24.8887C16.8184 24.7832 16.7578 24.6322 16.7578 24.4355C16.7578 24.2168 16.8405 24.0547 17.0059 23.9492C17.1725 23.8438 17.4121 23.778 17.7246 23.752C17.7676 23.748 17.832 23.7428 17.918 23.7363C18.0052 23.7285 18.0703 23.7227 18.1133 23.7188V23.5293C18.1133 23.3783 18.0781 23.2663 18.0078 23.1934C17.9375 23.1204 17.8268 23.084 17.6758 23.084C17.4648 23.084 17.252 23.1361 17.0371 23.2402C17.0306 23.2246 17.0137 23.1797 16.9863 23.1055C16.959 23.0299 16.9447 22.9909 16.9434 22.9883C17.0384 22.9349 17.151 22.8926 17.2812 22.8613C17.4128 22.8288 17.5462 22.8125 17.6816 22.8125C17.9486 22.8125 18.1406 22.8711 18.2578 22.9883C18.3763 23.1042 18.4355 23.3021 18.4355 23.582V25H18.1816ZM19.5645 23.9102L18.8086 22.8574H19.1816L19.7539 23.6738L20.3281 22.8574H20.7012L19.9434 23.9141L20.7207 25H20.3594L19.7559 24.1387L19.1523 25H18.7793L19.5645 23.9102ZM21.1387 25V23.0859H20.8242V22.8555H21.1387V22.7773C21.1426 22.6198 21.1562 22.4922 21.1797 22.3945C21.2044 22.2956 21.2454 22.2161 21.3027 22.1562C21.36 22.0964 21.4303 22.0553 21.5137 22.0332C21.597 22.0111 21.7051 22 21.8379 22H21.9805L22.0195 22.25H21.8359C21.7878 22.25 21.7454 22.2533 21.709 22.2598C21.6738 22.2663 21.6426 22.2747 21.6152 22.2852C21.5892 22.2956 21.5671 22.3118 21.5488 22.334C21.5319 22.3561 21.5176 22.3796 21.5059 22.4043C21.4954 22.4277 21.487 22.4603 21.4805 22.502C21.4753 22.5436 21.4714 22.5846 21.4688 22.625C21.4674 22.6654 21.4668 22.7174 21.4668 22.7812V22.8555H22.6523V25H22.3242V23.0859H21.4668V25H21.1387ZM22.3242 22.0781H22.6523V22.4648H22.3242V22.0781ZM24.4238 23.2539C24.3288 23.1393 24.1979 23.082 24.0312 23.082C23.8646 23.082 23.7285 23.1413 23.623 23.2598C23.5176 23.377 23.4557 23.5378 23.4375 23.7422H24.5684C24.5684 23.5299 24.5202 23.3672 24.4238 23.2539ZM24.0957 25.0449C23.7845 25.0449 23.5391 24.946 23.3594 24.748C23.181 24.5501 23.0918 24.2793 23.0918 23.9355C23.0918 23.6035 23.1784 23.3346 23.3516 23.1289C23.5247 22.9219 23.7526 22.8164 24.0352 22.8125C24.3008 22.8125 24.5111 22.9036 24.666 23.0859C24.8223 23.2669 24.9004 23.5091 24.9004 23.8125C24.9004 23.8281 24.8997 23.8568 24.8984 23.8984C24.8984 23.9401 24.8984 23.9701 24.8984 23.9883H23.4277C23.4316 24.2318 23.4941 24.4219 23.6152 24.5586C23.7376 24.694 23.9017 24.7617 24.1074 24.7617C24.334 24.7617 24.5612 24.7018 24.7891 24.582L24.8398 24.8457C24.6224 24.9785 24.3743 25.0449 24.0957 25.0449ZM25.9297 25.0391C25.7214 25.0391 25.5736 24.9831 25.4863 24.8711C25.4004 24.7591 25.3574 24.5645 25.3574 24.2871V22.0254L25.6816 22.0059V24.1582C25.6816 24.2467 25.6823 24.3177 25.6836 24.3711C25.6862 24.4245 25.6914 24.4772 25.6992 24.5293C25.707 24.5801 25.7174 24.6185 25.7305 24.6445C25.7435 24.6706 25.7624 24.6947 25.7871 24.7168C25.8118 24.7376 25.8411 24.752 25.875 24.7598C25.9102 24.7663 25.9531 24.7695 26.0039 24.7695C26.0456 24.7695 26.1276 24.7617 26.25 24.7461L26.2676 25.0059C26.1335 25.028 26.0208 25.0391 25.9297 25.0391ZM27.3027 24.7637C27.5176 24.7637 27.6771 24.6947 27.7812 24.5566C27.8867 24.4186 27.9395 24.2214 27.9395 23.9648C27.9395 23.6758 27.8887 23.4583 27.7871 23.3125C27.6868 23.1654 27.5241 23.0918 27.2988 23.0918C27.1986 23.0918 27.11 23.1133 27.0332 23.1562C26.9564 23.1992 26.8945 23.2591 26.8477 23.3359C26.8008 23.4128 26.765 23.5013 26.7402 23.6016C26.7168 23.7005 26.7051 23.8092 26.7051 23.9277C26.7051 24.0944 26.7253 24.2389 26.7656 24.3613C26.8073 24.4837 26.8737 24.5814 26.9648 24.6543C27.056 24.7272 27.1686 24.7637 27.3027 24.7637ZM27.9453 24.6895C27.875 24.7975 27.7812 24.8835 27.6641 24.9473C27.5469 25.0111 27.416 25.043 27.2715 25.043C26.9889 25.043 26.7676 24.9427 26.6074 24.7422C26.4473 24.5404 26.3672 24.2663 26.3672 23.9199C26.3672 23.5892 26.4486 23.3223 26.6113 23.1191C26.7741 22.9147 26.9922 22.8125 27.2656 22.8125C27.4076 22.8125 27.541 22.8438 27.666 22.9062C27.7923 22.9674 27.8867 23.0501 27.9492 23.1543L27.9434 22.9688V22.0254L28.2656 22.0059V25H27.9883L27.9453 24.6895ZM29.8398 24.5234C30.1406 24.6719 30.4629 24.7461 30.8066 24.7461C31.2298 24.7461 31.4414 24.5534 31.4414 24.168C31.4414 24.043 31.4076 23.9421 31.3398 23.8652C31.2734 23.7871 31.1517 23.7259 30.9746 23.6816L30.4004 23.5371C29.9616 23.4264 29.7422 23.1921 29.7422 22.834C29.7422 22.5592 29.8366 22.3555 30.0254 22.2227C30.2142 22.0885 30.4753 22.0215 30.8086 22.0215C30.9831 22.0215 31.1465 22.0404 31.2988 22.0781C31.4512 22.1159 31.5788 22.1667 31.6816 22.2305L31.584 22.5059C31.4967 22.4577 31.3809 22.4147 31.2363 22.377C31.0931 22.3392 30.9479 22.3203 30.8008 22.3203C30.3294 22.3203 30.0938 22.4837 30.0938 22.8105C30.0938 22.9212 30.1296 23.0104 30.2012 23.0781C30.2741 23.1445 30.3828 23.1953 30.5273 23.2305L31.0762 23.3633C31.3105 23.4193 31.4883 23.5091 31.6094 23.6328C31.7305 23.7552 31.791 23.9297 31.791 24.1562C31.791 24.4505 31.7005 24.6725 31.5195 24.8223C31.3398 24.9707 31.0951 25.0449 30.7852 25.0449C30.5534 25.0449 30.347 25.0215 30.166 24.9746C29.9863 24.9264 29.8438 24.8698 29.7383 24.8047L29.8398 24.5234ZM34.9531 25V23.8848C34.9531 23.7806 34.9505 23.6934 34.9453 23.623C34.9414 23.5527 34.931 23.4811 34.9141 23.4082C34.8984 23.3353 34.8757 23.278 34.8457 23.2363C34.8171 23.1934 34.7767 23.1589 34.7246 23.1328C34.6725 23.1055 34.61 23.0918 34.5371 23.0918C34.3939 23.0918 34.2715 23.1302 34.1699 23.207C34.0697 23.2839 33.998 23.3919 33.9551 23.5312C33.9434 23.625 33.9375 23.7253 33.9375 23.832V25H33.6113V23.8496C33.6113 23.7533 33.6081 23.6699 33.6016 23.5996C33.5951 23.528 33.5827 23.459 33.5645 23.3926C33.5462 23.3249 33.5215 23.2702 33.4902 23.2285C33.4603 23.1868 33.4199 23.1536 33.3691 23.1289C33.3184 23.1042 33.2578 23.0918 33.1875 23.0918C33.0312 23.0918 32.8997 23.1315 32.793 23.2109C32.6875 23.2904 32.6165 23.3958 32.5801 23.5273C32.5684 23.6276 32.5625 23.7363 32.5625 23.8535V25H32.2363C32.2337 23.6602 32.2324 22.946 32.2324 22.8574H32.5059L32.5469 23.1641C32.612 23.0651 32.7044 22.9818 32.8242 22.9141C32.944 22.8464 33.0801 22.8125 33.2324 22.8125C33.3118 22.8125 33.3848 22.821 33.4512 22.8379C33.5189 22.8535 33.5749 22.8737 33.6191 22.8984C33.6647 22.9232 33.7051 22.9531 33.7402 22.9883C33.7754 23.0221 33.8027 23.056 33.8223 23.0898C33.8418 23.1224 33.8581 23.1569 33.8711 23.1934C34.0273 22.9395 34.2663 22.8125 34.5879 22.8125C34.8262 22.8125 35.0007 22.8809 35.1113 23.0176C35.2233 23.153 35.2793 23.3542 35.2793 23.6211V25H34.9531ZM36.082 22.8574V25H35.7539V22.8574H36.082ZM36.082 22.0781V22.4648H35.7539V22.0781H36.082ZM37.3809 25.0391C37.1699 25.0391 37.0202 24.9876 36.9316 24.8848C36.8431 24.7819 36.7962 24.6159 36.791 24.3867V23.0996H36.4727L36.4863 22.8848L36.7891 22.8574L36.9004 22.3672L37.1152 22.3594V22.8574H37.7109V23.0996H37.1152V24.3281C37.1152 24.4909 37.14 24.6055 37.1895 24.6719C37.2389 24.7383 37.3236 24.7715 37.4434 24.7715C37.4863 24.7715 37.5794 24.7611 37.7227 24.7402L37.7363 24.998C37.5814 25.0254 37.4629 25.0391 37.3809 25.0391ZM39.5273 25V23.7051C39.5273 23.4902 39.4928 23.334 39.4238 23.2363C39.3561 23.1387 39.237 23.0898 39.0664 23.0898C38.9023 23.0898 38.7637 23.1309 38.6504 23.2129C38.5384 23.2949 38.4655 23.401 38.4316 23.5312C38.4199 23.6289 38.4141 23.7376 38.4141 23.8574V25H38.0879V22.0254L38.4141 22.0059V22.877C38.4141 22.9512 38.4115 23.043 38.4062 23.1523C38.5898 22.9258 38.8333 22.8125 39.1367 22.8125C39.6146 22.8125 39.8535 23.0931 39.8535 23.6543V25H39.5273Z" fill="black"/>
</g>
<g id="phoneicon">
<rect id="Rectangle 21" x="10.8341" y="55.0932" width="11.34" height="11.34" rx="1" fill="#F7F7F7" stroke="black" stroke-width="0.5"/>
<g id="phone-auricular-with-high-volume 1" clip-path="url(#clip0)">
<g id="Group">
<path id="Vector" d="M19.7886 61.0185L19.2499 61.0036C19.2985 59.2455 17.9074 57.7754 16.1493 57.7268L16.164 57.1883C18.2194 57.2454 19.8449 58.9633 19.7886 61.0185ZM16.1381 58.1186L16.1229 58.657C17.3685 58.6914 18.3538 59.7327 18.3194 60.9782L18.8581 60.9925C18.9005 59.4512 17.6799 58.1612 16.1381 58.1186ZM16.1118 59.0794L16.097 59.6182C16.8125 59.6376 17.3791 60.2364 17.359 60.9519L17.8977 60.9667C17.9253 59.9541 17.1239 59.1072 16.1118 59.0794ZM13.2349 61.4838C13.5466 61.8715 13.8711 62.2481 14.2062 62.6152L14.2045 62.6168C14.214 62.6264 14.2237 62.6353 14.233 62.6451C14.2424 62.6551 14.2507 62.6652 14.2595 62.6749L14.2614 62.6731C14.6094 63.028 14.9678 63.3732 15.3376 63.7056C16.3047 64.5765 17.6373 64.5016 18.2097 63.6522C18.2355 63.6156 18.2684 63.5839 18.2868 63.5433C18.394 63.3024 18.411 63.0271 18.4786 62.7717C18.5633 62.4442 17.0674 61.762 16.9247 62.1679C16.8726 62.3186 16.7873 62.7967 16.6881 62.9204C16.5997 63.031 16.3926 62.9717 16.2647 62.8569C15.9273 62.5536 15.5543 62.1112 15.2263 61.7605L15.2268 61.76C15.218 61.7507 15.2083 61.7408 15.1992 61.7312C15.1901 61.7215 15.1806 61.7112 15.1719 61.702L15.1713 61.7027C14.8392 61.3558 14.418 60.9589 14.1338 60.6053C14.0261 60.4711 13.9781 60.2608 14.0938 60.179C14.2228 60.0868 14.7049 60.028 14.8583 59.9844C15.2714 59.8642 14.6723 58.3328 14.3412 58.3994C14.0822 58.4527 13.8062 58.4543 13.5602 58.5484C13.5183 58.5642 13.4848 58.5956 13.447 58.6192C12.5671 59.1437 12.419 60.4701 13.2349 61.4838Z" fill="black"/>
</g>
</g>
</g>
<g id="interneticon">
<circle id="Ellipse 2" cx="16.294" cy="43.2444" r="5.10126" fill="white" stroke="black" stroke-width="0.5"/>
<path id="Vector 3" d="M16.2941 38.1432C14.1935 39.7436 11.2528 44.0246 16.2941 48.3457C21.3353 44.0246 18.3946 39.7436 16.2941 38.1432Z" fill="white" stroke="black" stroke-width="0.5" stroke-linecap="round" stroke-linejoin="round"/>
<path id="Vector 4" d="M12.3931 46.5453C13.7934 45.8451 17.3143 44.8649 20.195 46.5453M12.3931 39.9436C13.7934 40.6438 17.3143 41.624 20.195 39.9436M11.1928 43.2445H21.3953" stroke="black" stroke-width="0.5" stroke-linecap="round" stroke-linejoin="round"/>
<path id="Vector 2" d="M16.294 38.1432V48.3457" stroke="black" stroke-width="0.5" stroke-linecap="round" stroke-linejoin="round"/>
</g>
<g id="emailicon">
<rect id="Rectangle 17" x="30.666" y="39.5971" width="9.72239" height="6.65316" rx="1" fill="white" stroke="black" stroke-width="0.5"/>
<path id="Vector 5" d="M31.1173 40.0695L35.5352 43.0946L39.8121 40.0695" stroke="black" stroke-width="0.5" stroke-linecap="round" stroke-linejoin="round"/>
<path id="Vector 6" d="M31.1173 45.8633L34.5482 42.4281M40.0001 45.8633L36.5222 42.4281" stroke="black" stroke-width="0.5" stroke-linecap="round" stroke-linejoin="round"/>
</g>
<g id="linkedinicon">
<rect id="Rectangle 19" x="29.6058" y="54.6758" width="12.1574" height="12.1574" rx="2.75" fill="black"/>
<path id="Vector_2" d="M38.9775 55H32.3625C31.0579 55 30 56.0579 30 57.3625V63.9775C30 65.2821 31.0579 66.34 32.3625 66.34H38.9775C40.2825 66.34 41.34 65.2821 41.34 63.9775V57.3625C41.34 56.0579 40.2825 55 38.9775 55ZM33.78 63.9775H32.3625V58.78H33.78V63.9775ZM33.0712 58.1809C32.6148 58.1809 32.2444 57.8076 32.2444 57.3474C32.2444 56.8872 32.6148 56.5139 33.0712 56.5139C33.5277 56.5139 33.8981 56.8872 33.8981 57.3474C33.8981 57.8076 33.5282 58.1809 33.0712 58.1809ZM39.45 63.9775H38.0325V61.3296C38.0325 59.7382 36.1425 59.8587 36.1425 61.3296V63.9775H34.725V58.78H36.1425V59.614C36.8021 58.3921 39.45 58.3018 39.45 60.7839V63.9775Z" fill="#F7F7F7"/>
</g>
</g>
<g id="bolt">
<g id="bolt1">
<circle id="Ellipse 1" cx="21.0272" cy="36.3051" r="4" fill="#85D6C7"/>
<path id="Vector 1" d="M22.0926 33.5971H19.7926V36.5114H20.6926L20.3926 39.5971L22.7926 35.6542H21.5926L22.0926 33.5971Z" fill="white"/>
</g>
<g id="bolt2">
<circle id="Ellipse 1_2" cx="41.0272" cy="36.3051" r="4" fill="#85D6C7"/>
<path id="Vector 1_2" d="M42.0926 33.5971H39.7926V36.5114H40.6926L40.3926 39.5971L42.7926 35.6542H41.5926L42.0926 33.5971Z" fill="white"/>
</g>
<g id="bolt3">
<circle id="Ellipse 1_3" cx="21.0272" cy="54.3051" r="4" fill="#85D6C7"/>
<path id="Vector 1_3" d="M22.0926 51.5971H19.7926V54.5114H20.6926L20.3926 57.5971L22.7926 53.6542H21.5926L22.0926 51.5971Z" fill="white"/>
</g>
<g id="bolt4">
<circle id="Ellipse 1_4" cx="41.0272" cy="54.3051" r="4" fill="#85D6C7"/>
<path id="Vector 1_4" d="M42.0926 51.5971H39.7926V54.5114H40.6926L40.3926 57.5971L42.7926 53.6542H41.5926L42.0926 51.5971Z" fill="white"/>
</g>
</g>
</g>
<defs>
<clipPath id="clip0">
<rect width="7" height="7" fill="white" transform="translate(11.5522 60.3633) rotate(-43.4173)"/>
</clipPath>
</defs>
</svg>
